# xmcd
#
# Track frame offsets:
# 150
# 17826
# 32464
# 48296
# 84799
# 91384
# 98785
# 112171
# 122202
# 137058
# 154336
# 169872
# 183196
# 207528
# 222841
# 239718
# 254472
#
# Disc length: 3629 seconds
#
#
# Revision: 0
# Processed by: cddbd v1.5.2PL0 Copyright (c) Steve Scherf et al.
# Submitted via: FreeRIP 2.95 
#
DISCID=ed0e2b11
DTITLE=Don and Juan - Ao Vivo - Ao Vivo
DYEAR=2006
DGENRE=Sertanejo
TTITLE0=MAGIA E MISTÉRIO
TTITLE1=PORTA RETRATO
TTITLE2=MIL RAZÕES
TTITLE3=COMO UM ANJO SEM MEDO DESER FELIZ VOCE VAI VER
TTITLE4=FIO DE CABELO
TTITLE5=BOATE AZUL
TTITLE6=TELEFONE MUDO
TTITLE7=60 DIAS APAIXONADO
TTITLE8=SAUDADE DA MINHA TERRA
TTITLE9=É AMOR DEMAIS ANJO VOLTA PRA MIM
TTITLE10=PORQUE SERA[OA VIVO
TTITLE11=APAZIGUAR
TTITLE12=CREDO EM CRUZ É PRA LA QUE EU VOU
TTITLE13=BARQUINHO
TTITLE14=OH TREM BÃO/GALERA FELICIDADE:.BÔNUS:.
TTITLE15=PORQUE SERA [DON E JUAN]
TTITLE16=DOIS AMANTES[DON E JUAN]
EXTD=emerson@betim.mg.gov.br
EXTT0=
EXTT1=
EXTT2=
EXTT3=
EXTT4=
EXTT5=
EXTT6=
EXTT7=
EXTT8=
EXTT9=
EXTT10=
EXTT11=
EXTT12=
EXTT13=
EXTT14=
EXTT15=
EXTT16=
PLAYORDER=
